<?xml version="1.0" encoding="UTF-8"?> <svg xmlns="http://www.w3.org/2000/svg" width="245.358" height="32.628" viewBox="0 0 245.358 32.628"><defs><style>.a{fill:#9d0061;}.a,.b{fill-rule:evenodd;}</style></defs><g transform="translate(-120 -18.778)"><g transform="translate(120 18.778)"><g transform="translate(0 0)"><g transform="translate(0 0)"><path class="a" d="M50.49,15.779a18.922,18.922,0,0,1-4.217-.535A12.6,12.6,0,0,1,39,10.866l-.267-.354a27.813,27.813,0,0,0-5.088-5.65,14.274,14.274,0,0,0-8.326-2.723l-.093,0A14.211,14.211,0,0,0,16.966,4.86a27.785,27.785,0,0,0-5.088,5.649l-.268.355a12.6,12.6,0,0,1-7.278,4.377A18.592,18.592,0,0,1,0,15.774L.036,14.12a17.315,17.315,0,0,0,3.908-.488A11.183,11.183,0,0,0,10.29,9.867l.267-.354a29.385,29.385,0,0,1,5.407-5.97A15.846,15.846,0,0,1,25.211.483l.174,0a15.857,15.857,0,0,1,9.258,3.059,29.4,29.4,0,0,1,5.407,5.971l.266.353a11.19,11.19,0,0,0,6.347,3.766,17.16,17.16,0,0,0,3.907.488l.038,1.654-.117,0" transform="translate(0 -0.483)"></path></g><path class="a" d="M25.235,34a15.845,15.845,0,0,1-9.275-3.054A29.213,29.213,0,0,1,10.576,25L10.3,24.63a11.189,11.189,0,0,0-6.347-3.768,17.114,17.114,0,0,0-3.907-.487L.007,18.72a18.611,18.611,0,0,1,4.333.533,12.6,12.6,0,0,1,7.279,4.379L11.9,24a27.618,27.618,0,0,0,5.065,5.625,14.244,14.244,0,0,0,8.314,2.718h.077a14.274,14.274,0,0,0,8.291-2.718,27.728,27.728,0,0,0,5.111-5.665l.25-.33a12.592,12.592,0,0,1,7.276-4.378,18.609,18.609,0,0,1,4.335-.533l-.038,1.655a17.127,17.127,0,0,0-3.907.487,11.182,11.182,0,0,0-6.345,3.766l-.25.33a29.3,29.3,0,0,1-5.431,5.986A15.875,15.875,0,0,1,25.393,34Z" transform="translate(0 -1.369)"></path><path class="a" d="M36.542,18.225v2.152a8.274,8.274,0,0,0-8.273,8.275l-4.942-.005a8.274,8.274,0,0,0-8.274-8.273V18.225ZM25.762,26.4a6.028,6.028,0,0,1,1.048-3.57,9.48,9.48,0,0,1,2.769-2.478l-7.63,0a9.611,9.611,0,0,1,2.769,2.455,5.932,5.932,0,0,1,1.048,3.546Z" transform="translate(-0.496 -1.352)"></path><path class="a" d="M15.051,16.8V14.652a8.272,8.272,0,0,0,8.273-8.272l4.942,0a8.273,8.273,0,0,0,8.274,8.273V16.8ZM25.842,8.222A6.908,6.908,0,0,1,24.776,12a8.929,8.929,0,0,1-2.787,2.687l7.63,0a9.585,9.585,0,0,1-2.769-2.454A5.934,5.934,0,0,1,25.8,8.683Z" transform="translate(-0.496 -0.962)"></path><path class="b" d="M59.82,24.791V8.629H70.9v2.736H63.092v3.808h6.741v2.736H63.092v6.882Z" transform="translate(-1.971 -1.036)"></path><path class="b" d="M73.256,18.918a6.1,6.1,0,0,1,.19-1.517,6.691,6.691,0,0,1,.571-1.466,5.413,5.413,0,0,1,.921-1.27,5.2,5.2,0,0,1,1.239-.93,6.115,6.115,0,0,1,1.478-.569,6.886,6.886,0,0,1,1.64-.19,6.538,6.538,0,0,1,2.421.431A5.584,5.584,0,0,1,83.657,14.7a5.711,5.711,0,0,1,1.275,1.949,7.045,7.045,0,0,1,0,4.828,5.775,5.775,0,0,1-1.288,1.971A5.673,5.673,0,0,1,81.7,24.752a6.315,6.315,0,0,1-2.383.436,6.871,6.871,0,0,1-1.575-.181,6.983,6.983,0,0,1-1.5-.545,5.156,5.156,0,0,1-1.288-.9,5.009,5.009,0,0,1-.937-1.234,5.989,5.989,0,0,1-.571-1.556,8.537,8.537,0,0,1-.19-1.86m3.187.164a5.211,5.211,0,0,0,.207,1.539,3.023,3.023,0,0,0,.621,1.132,2.787,2.787,0,0,0,.924.694,2.811,2.811,0,0,0,2.232,0,2.773,2.773,0,0,0,.921-.694,3.025,3.025,0,0,0,.616-1.137,5.335,5.335,0,0,0,.205-1.555,5.146,5.146,0,0,0-.205-1.523,3.026,3.026,0,0,0-.616-1.125,2.766,2.766,0,0,0-.921-.7,2.8,2.8,0,0,0-2.232,0,2.78,2.78,0,0,0-.924.7,3.017,3.017,0,0,0-.621,1.13,5.217,5.217,0,0,0-.207,1.539" transform="translate(-2.413 -1.18)"></path><path class="b" d="M91.254,24.935h-3.1V13.229h2.877v1.665a8.278,8.278,0,0,1,.7-.977,2.854,2.854,0,0,1,.624-.571,2.344,2.344,0,0,1,.627-.278,2.624,2.624,0,0,1,.706-.093,3.729,3.729,0,0,1,1.033.145,4.21,4.21,0,0,1,1,.436l-.945,2.69a3.526,3.526,0,0,0-.753-.381,2.1,2.1,0,0,0-.7-.127,1.923,1.923,0,0,0-.6.09,1.588,1.588,0,0,0-.5.269,1.613,1.613,0,0,0-.4.5,3.778,3.778,0,0,0-.306.792,7.931,7.931,0,0,0-.193,1.45q-.064.982-.065,2.475Z" transform="translate(-2.904 -1.18)"></path><path class="b" d="M97.115,13.229h2.848v1.6a5.336,5.336,0,0,1,1.683-1.388,4.3,4.3,0,0,1,1.975-.463,4.536,4.536,0,0,1,1.051.116,3.509,3.509,0,0,1,.9.348,3.253,3.253,0,0,1,.753.581,3.979,3.979,0,0,1,.6.818,6.3,6.3,0,0,1,.8-.818,4.712,4.712,0,0,1,.865-.581,4.082,4.082,0,0,1,1.909-.463,5.118,5.118,0,0,1,1.191.131,3.619,3.619,0,0,1,.992.393,3.131,3.131,0,0,1,.781.645,3.424,3.424,0,0,1,.555.891,3.867,3.867,0,0,1,.24.981,11.237,11.237,0,0,1,.079,1.443v7.476h-3.1V18.251a10.5,10.5,0,0,0-.08-1.431,2.156,2.156,0,0,0-.24-.815,1.39,1.39,0,0,0-.545-.5,1.728,1.728,0,0,0-.778-.165,2.041,2.041,0,0,0-.631.1,2.3,2.3,0,0,0-.594.3,1.982,1.982,0,0,0-.493.489,2.529,2.529,0,0,0-.333.673,4.72,4.72,0,0,0-.191.987,13.83,13.83,0,0,0-.064,1.43v5.615h-3.1V18.526q0-.853-.041-1.4a3.566,3.566,0,0,0-.124-.8,1.68,1.68,0,0,0-.211-.432,1.2,1.2,0,0,0-.3-.3,1.238,1.238,0,0,0-.409-.183,2.127,2.127,0,0,0-.532-.061,2.349,2.349,0,0,0-.681.1,2.212,2.212,0,0,0-.608.29,1.989,1.989,0,0,0-.491.471,2.321,2.321,0,0,0-.33.642,4.492,4.492,0,0,0-.187.966q-.061.6-.062,1.445v5.681h-3.1Z" transform="translate(-3.199 -1.18)"></path><path class="b" d="M117.338,18.918a6.078,6.078,0,0,1,.191-1.517,6.67,6.67,0,0,1,.571-1.466,5.41,5.41,0,0,1,.921-1.27,5.192,5.192,0,0,1,1.238-.93,6.128,6.128,0,0,1,1.478-.569,6.891,6.891,0,0,1,1.641-.19,6.534,6.534,0,0,1,2.421.431,5.581,5.581,0,0,1,1.941,1.292,5.674,5.674,0,0,1,1.275,1.949,6.53,6.53,0,0,1,.426,2.4,6.63,6.63,0,0,1-.428,2.425,5.78,5.78,0,0,1-1.289,1.971,5.69,5.69,0,0,1-1.938,1.307,6.322,6.322,0,0,1-2.383.436,6.872,6.872,0,0,1-1.575-.181,6.976,6.976,0,0,1-1.5-.545,5.152,5.152,0,0,1-1.288-.9,5.023,5.023,0,0,1-.937-1.234,5.975,5.975,0,0,1-.571-1.556,8.5,8.5,0,0,1-.191-1.86m3.186.164a5.221,5.221,0,0,0,.207,1.539,3.015,3.015,0,0,0,.622,1.132,2.782,2.782,0,0,0,.924.694,2.812,2.812,0,0,0,2.232,0,2.778,2.778,0,0,0,.92-.694,3.034,3.034,0,0,0,.617-1.137,5.323,5.323,0,0,0,.205-1.555,5.135,5.135,0,0,0-.205-1.523,3.035,3.035,0,0,0-.617-1.125,2.772,2.772,0,0,0-.92-.7,2.8,2.8,0,0,0-2.232,0,2.775,2.775,0,0,0-.924.7,3.009,3.009,0,0,0-.622,1.13,5.227,5.227,0,0,0-.207,1.539" transform="translate(-3.865 -1.18)"></path><path class="b" d="M131.24,21.634l3.1-.479a2.641,2.641,0,0,0,.3.78,1.981,1.981,0,0,0,.5.566,2.079,2.079,0,0,0,.726.344,3.7,3.7,0,0,0,.969.114,4.446,4.446,0,0,0,1.05-.11,2.111,2.111,0,0,0,.753-.329,1.018,1.018,0,0,0,.306-.36,1.04,1.04,0,0,0,.1-.465.882.882,0,0,0-.055-.322.764.764,0,0,0-.164-.261,1.183,1.183,0,0,0-.377-.212,4.787,4.787,0,0,0-.663-.195q-1.879-.413-3.069-.79a6.972,6.972,0,0,1-1.7-.718,3.009,3.009,0,0,1-1.393-2.633,3.245,3.245,0,0,1,.3-1.4,3.5,3.5,0,0,1,.9-1.156,3.925,3.925,0,0,1,1.535-.777,8.283,8.283,0,0,1,2.2-.259,9.9,9.9,0,0,1,2.1.2,4.308,4.308,0,0,1,1.48.588,3.709,3.709,0,0,1,.987.972,4.513,4.513,0,0,1,.624,1.346l-2.933.536a2.011,2.011,0,0,0-.272-.6,1.706,1.706,0,0,0-.44-.443,1.891,1.891,0,0,0-.636-.273,3.633,3.633,0,0,0-.859-.091,5.554,5.554,0,0,0-1.051.086,2,2,0,0,0-.7.256.815.815,0,0,0-.264.277.689.689,0,0,0-.089.349.626.626,0,0,0,.077.306.829.829,0,0,0,.232.256,3.63,3.63,0,0,0,.934.372q.725.217,1.966.5a14.411,14.411,0,0,1,2.105.624,5.066,5.066,0,0,1,1.357.751,2.608,2.608,0,0,1,.728.987,3.329,3.329,0,0,1,.244,1.311,3.37,3.37,0,0,1-.336,1.492,3.971,3.971,0,0,1-1.006,1.267,4.413,4.413,0,0,1-1.665.866,8.325,8.325,0,0,1-2.307.288,8.777,8.777,0,0,1-2.139-.238,5.09,5.09,0,0,1-1.642-.717,4.414,4.414,0,0,1-1.821-2.6" transform="translate(-4.323 -1.179)"></path><path class="b" d="M147.612,16.839l-2.792-.508a5.354,5.354,0,0,1,.645-1.488,3.776,3.776,0,0,1,.988-1.045,4.142,4.142,0,0,1,1.44-.617,8.711,8.711,0,0,1,2-.206,11.759,11.759,0,0,1,1.81.123,4.644,4.644,0,0,1,1.279.368,3.916,3.916,0,0,1,.867.557,2.521,2.521,0,0,1,.564.688,3.267,3.267,0,0,1,.31,1.07,11.667,11.667,0,0,1,.1,1.7l-.056,3.612q0,.771.037,1.34a7.512,7.512,0,0,0,.111.935,5.713,5.713,0,0,0,.215.758,7.76,7.76,0,0,0,.343.811h-3.075c-.041-.1-.085-.23-.134-.382s-.1-.33-.162-.533c-.025-.092-.047-.168-.066-.228s-.033-.106-.044-.135a6.132,6.132,0,0,1-.819.671,5.132,5.132,0,0,1-.872.478,4.682,4.682,0,0,1-.931.287,5.053,5.053,0,0,1-.991.1,4.951,4.951,0,0,1-1.611-.244,3.351,3.351,0,0,1-1.227-.733,3.211,3.211,0,0,1-.779-1.106,3.485,3.485,0,0,1-.26-1.364,3.564,3.564,0,0,1,.119-.933,3.094,3.094,0,0,1,.354-.827,3.018,3.018,0,0,1,.567-.684,3.177,3.177,0,0,1,.756-.5,6.845,6.845,0,0,1,1.041-.387q.614-.179,1.415-.333,1.081-.2,1.831-.393a8.6,8.6,0,0,0,1.168-.365v-.311a2.348,2.348,0,0,0-.111-.769,1.151,1.151,0,0,0-.33-.511,1.476,1.476,0,0,0-.638-.287,4.664,4.664,0,0,0-1.028-.1,2.942,2.942,0,0,0-.736.083,1.514,1.514,0,0,0-.973.705A3.306,3.306,0,0,0,147.612,16.839Zm4.147,2.482q-.3.1-.764.217t-1.107.256q-.64.138-1.059.272a2.65,2.65,0,0,0-.616.266,1.506,1.506,0,0,0-.451.487,1.23,1.23,0,0,0-.15.6,1.512,1.512,0,0,0,.12.6,1.622,1.622,0,0,0,.362.517,1.6,1.6,0,0,0,.546.354,1.868,1.868,0,0,0,.679.118,2.466,2.466,0,0,0,.812-.138,2.984,2.984,0,0,0,.774-.412,2.171,2.171,0,0,0,.462-.465,1.813,1.813,0,0,0,.271-.558,2.919,2.919,0,0,0,.091-.574c.019-.251.03-.562.03-.933Z" transform="translate(-4.76 -1.179)"></path><path class="b" d="M164.844,24.791V8.629h5.226q1.484,0,2.453.061a7.958,7.958,0,0,1,1.42.182,4.085,4.085,0,0,1,1.273.578,4.563,4.563,0,0,1,1.047,1,4.265,4.265,0,0,1,.7,1.4A6.109,6.109,0,0,1,177.2,13.6a6.511,6.511,0,0,1-.134,1.37,4.39,4.39,0,0,1-.4,1.133,4.936,4.936,0,0,1-.612.906,4.045,4.045,0,0,1-.756.687,5.257,5.257,0,0,1-.836.481,4.227,4.227,0,0,1-.85.286,11.572,11.572,0,0,1-1.425.173q-.843.057-1.947.058h-2.119v6.092Zm3.273-13.426v4.6h1.776q.96,0,1.6-.063a3.847,3.847,0,0,0,.965-.19,2.3,2.3,0,0,0,.578-.326,2.07,2.07,0,0,0,.436-.469,2.092,2.092,0,0,0,.277-.586,2.56,2.56,0,0,0-.037-1.481,1.937,1.937,0,0,0-.388-.652,2.212,2.212,0,0,0-.583-.467,2.384,2.384,0,0,0-.721-.252,6.788,6.788,0,0,0-.876-.083q-.583-.028-1.46-.028Z" transform="translate(-5.43 -1.036)"></path><path class="b" d="M180.35,24.791h3.1V8.629h-3.1Z" transform="translate(-5.941 -1.036)"></path><path class="b" d="M189.119,16.839l-2.793-.508a5.382,5.382,0,0,1,.645-1.488,3.776,3.776,0,0,1,.988-1.045,4.132,4.132,0,0,1,1.441-.617,8.69,8.69,0,0,1,2-.206,11.768,11.768,0,0,1,1.81.123,4.652,4.652,0,0,1,1.28.368,3.886,3.886,0,0,1,.866.557,2.542,2.542,0,0,1,.565.688,3.314,3.314,0,0,1,.31,1.07,11.665,11.665,0,0,1,.1,1.7l-.056,3.612q0,.771.037,1.34a7.331,7.331,0,0,0,.111.935,5.565,5.565,0,0,0,.214.758,7.76,7.76,0,0,0,.343.811h-3.074c-.041-.1-.086-.23-.135-.382s-.1-.33-.161-.533c-.026-.092-.047-.168-.066-.228s-.033-.106-.045-.135a6.065,6.065,0,0,1-.818.671,5.068,5.068,0,0,1-.873.478,4.673,4.673,0,0,1-.93.287,5.055,5.055,0,0,1-.992.1,4.939,4.939,0,0,1-1.609-.244,3.367,3.367,0,0,1-1.229-.733,3.221,3.221,0,0,1-.778-1.106,3.5,3.5,0,0,1-.259-1.364,3.606,3.606,0,0,1,.118-.933,3.125,3.125,0,0,1,.354-.827,3.043,3.043,0,0,1,.567-.684,3.177,3.177,0,0,1,.756-.5,6.791,6.791,0,0,1,1.04-.387q.614-.179,1.417-.333,1.081-.2,1.831-.393a8.535,8.535,0,0,0,1.167-.365v-.311a2.348,2.348,0,0,0-.111-.769,1.16,1.16,0,0,0-.331-.511,1.467,1.467,0,0,0-.636-.287,4.667,4.667,0,0,0-1.029-.1,2.947,2.947,0,0,0-.736.083,1.65,1.65,0,0,0-.554.249,1.667,1.667,0,0,0-.419.457A3.259,3.259,0,0,0,189.119,16.839Zm4.146,2.482c-.2.066-.453.138-.764.217s-.681.165-1.107.256-.779.183-1.059.272a2.658,2.658,0,0,0-.615.266,1.5,1.5,0,0,0-.451.487,1.22,1.22,0,0,0-.15.6,1.512,1.512,0,0,0,.12.6,1.619,1.619,0,0,0,.361.517,1.6,1.6,0,0,0,.546.354,1.868,1.868,0,0,0,.679.118,2.466,2.466,0,0,0,.812-.138,3.005,3.005,0,0,0,.775-.412,2.144,2.144,0,0,0,.461-.465,1.813,1.813,0,0,0,.271-.558,2.843,2.843,0,0,0,.091-.574q.03-.377.03-.933Z" transform="translate(-6.128 -1.179)"></path><path class="b" d="M198.7,21.634l3.1-.479a2.642,2.642,0,0,0,.3.78,1.981,1.981,0,0,0,.5.566,2.079,2.079,0,0,0,.726.344,3.719,3.719,0,0,0,.969.114,4.455,4.455,0,0,0,1.051-.11,2.111,2.111,0,0,0,.753-.329,1.021,1.021,0,0,0,.307-.36,1.04,1.04,0,0,0,.1-.465.9.9,0,0,0-.056-.322.77.77,0,0,0-.166-.261,1.17,1.17,0,0,0-.375-.212,4.787,4.787,0,0,0-.663-.195q-1.88-.413-3.07-.79a6.951,6.951,0,0,1-1.693-.718,3.011,3.011,0,0,1-1.395-2.633,3.232,3.232,0,0,1,.3-1.4,3.481,3.481,0,0,1,.9-1.156,3.918,3.918,0,0,1,1.535-.777,8.3,8.3,0,0,1,2.2-.259,9.879,9.879,0,0,1,2.1.2,4.308,4.308,0,0,1,1.48.588,3.713,3.713,0,0,1,.988.972,4.539,4.539,0,0,1,.625,1.346l-2.934.536a1.987,1.987,0,0,0-.272-.6,1.692,1.692,0,0,0-.44-.443,1.908,1.908,0,0,0-.636-.273,3.641,3.641,0,0,0-.86-.091,5.561,5.561,0,0,0-1.051.086,2.007,2.007,0,0,0-.7.256.841.841,0,0,0-.266.277.708.708,0,0,0-.088.349.616.616,0,0,0,.078.306.805.805,0,0,0,.232.256,3.646,3.646,0,0,0,.934.372q.725.217,1.965.5a14.339,14.339,0,0,1,2.105.624,5.066,5.066,0,0,1,1.357.751,2.613,2.613,0,0,1,.73.987,3.565,3.565,0,0,1-.093,2.8,3.988,3.988,0,0,1-1.007,1.267,4.406,4.406,0,0,1-1.665.866,8.32,8.32,0,0,1-2.307.288,8.782,8.782,0,0,1-2.139-.238,5.084,5.084,0,0,1-1.641-.717,4.5,4.5,0,0,1-1.151-1.128,4.554,4.554,0,0,1-.67-1.47" transform="translate(-6.546 -1.179)"></path><path class="b" d="M218.131,13.1v2.482h-2.115v4.7q0,.714.015,1.13a3.246,3.246,0,0,0,.045.535.655.655,0,0,0,.1.215.784.784,0,0,0,.174.175.773.773,0,0,0,.235.115.986.986,0,0,0,.281.038,2.261,2.261,0,0,0,.517-.074,6.42,6.42,0,0,0,.708-.223l.268,2.4a5.436,5.436,0,0,1-1.144.347,6.9,6.9,0,0,1-1.287.115,4.306,4.306,0,0,1-.791-.07,3.469,3.469,0,0,1-.709-.21,2.838,2.838,0,0,1-.579-.321,1.784,1.784,0,0,1-.4-.4,2.193,2.193,0,0,1-.264-.523,3.837,3.837,0,0,1-.169-.681,6.8,6.8,0,0,1-.074-.814q-.025-.545-.025-1.363V15.579H211.5V13.1h1.41V10.784l3.1-1.805V13.1Z" transform="translate(-6.967 -1.048)"></path><path class="b" d="M220.557,24.791h3.1V13.085h-3.1Zm0-13.285h3.1V8.629h-3.1Z" transform="translate(-7.266 -1.036)"></path><path class="b" d="M237.255,16.642l-3.046.564a2.651,2.651,0,0,0-.254-.786,1.8,1.8,0,0,0-.451-.564,1.86,1.86,0,0,0-.631-.341,2.838,2.838,0,0,0-1.841.087,2.233,2.233,0,0,0-.812.6,2.605,2.605,0,0,0-.52,1.068,6.5,6.5,0,0,0-.172,1.605,7.775,7.775,0,0,0,.175,1.778,2.889,2.889,0,0,0,.525,1.167,2.273,2.273,0,0,0,.821.645,2.529,2.529,0,0,0,1.061.214,2.4,2.4,0,0,0,.8-.127,1.875,1.875,0,0,0,.643-.381,2.064,2.064,0,0,0,.481-.691,4.678,4.678,0,0,0,.314-1.058l3.046.508a6.619,6.619,0,0,1-.692,1.85A4.48,4.48,0,0,1,234,24.92a7.126,7.126,0,0,1-2.034.268,6.257,6.257,0,0,1-2.31-.4,4.905,4.905,0,0,1-1.788-1.212,5.2,5.2,0,0,1-1.147-1.929,7.885,7.885,0,0,1-.382-2.55,7.955,7.955,0,0,1,.384-2.574,5.163,5.163,0,0,1,1.152-1.932,4.91,4.91,0,0,1,1.806-1.209,6.445,6.445,0,0,1,2.347-.4,7.5,7.5,0,0,1,1.924.227,4.53,4.53,0,0,1,1.484.679,4.3,4.3,0,0,1,1.087,1.143,6.086,6.086,0,0,1,.73,1.617" transform="translate(-7.456 -1.18)"></path><path class="b" d="M238.909,21.634l3.1-.479a2.615,2.615,0,0,0,.3.78,1.95,1.95,0,0,0,.5.566,2.071,2.071,0,0,0,.726.344,3.722,3.722,0,0,0,.97.114,4.446,4.446,0,0,0,1.05-.11,2.129,2.129,0,0,0,.755-.329,1.015,1.015,0,0,0,.3-.36,1.04,1.04,0,0,0,.1-.465.9.9,0,0,0-.055-.322.77.77,0,0,0-.166-.261,1.17,1.17,0,0,0-.375-.212,4.911,4.911,0,0,0-.663-.195q-1.88-.413-3.071-.79A6.951,6.951,0,0,1,240.7,19.2a3.007,3.007,0,0,1-1.394-2.633,3.245,3.245,0,0,1,.3-1.4,3.472,3.472,0,0,1,.9-1.156,3.921,3.921,0,0,1,1.534-.777,8.293,8.293,0,0,1,2.2-.259,9.886,9.886,0,0,1,2.1.2,4.316,4.316,0,0,1,1.48.588,3.728,3.728,0,0,1,.988.972,4.537,4.537,0,0,1,.624,1.346l-2.933.536a2.012,2.012,0,0,0-.273-.6,1.692,1.692,0,0,0-.44-.443,1.891,1.891,0,0,0-.636-.273,3.63,3.63,0,0,0-.86-.091,5.561,5.561,0,0,0-1.051.086,2.007,2.007,0,0,0-.7.256.838.838,0,0,0-.265.277.7.7,0,0,0-.088.349.636.636,0,0,0,.076.306.817.817,0,0,0,.232.256,3.654,3.654,0,0,0,.936.372q.724.217,1.964.5a14.391,14.391,0,0,1,2.106.624,5.059,5.059,0,0,1,1.356.751,2.613,2.613,0,0,1,.73.987,3.329,3.329,0,0,1,.244,1.311,3.37,3.37,0,0,1-.336,1.492,3.992,3.992,0,0,1-1.008,1.267,4.4,4.4,0,0,1-1.664.866,8.32,8.32,0,0,1-2.307.288,8.771,8.771,0,0,1-2.139-.238,5.061,5.061,0,0,1-1.64-.717,4.475,4.475,0,0,1-1.153-1.128,4.532,4.532,0,0,1-.669-1.47" transform="translate(-7.87 -1.179)"></path><path class="b" d="M251.7,11.935a1.889,1.889,0,1,1,1.336-.554A1.881,1.881,0,0,1,251.7,11.935Zm0-3.616a1.723,1.723,0,1,0,1.221.5A1.723,1.723,0,0,0,251.7,8.32Zm-.726,1.06a.848.848,0,0,0-.031-.31c-.031-.07-.095-.105-.22-.105v-.1h.966A1.22,1.22,0,0,1,252.3,9a.5.5,0,0,1,.26.455.514.514,0,0,1-.183.407,1.019,1.019,0,0,1-.418.193l.518.738a1.2,1.2,0,0,0,.179.224.29.29,0,0,0,.2.06v.1h-.514l-.785-1.076h-.2v.781a.166.166,0,0,0,.1.172.6.6,0,0,0,.215.025v.1h-.978v-.1c.138,0,.209-.029.244-.1a.838.838,0,0,0,.034-.33Zm.432.6a1.08,1.08,0,0,0,.473-.091.408.408,0,0,0,.236-.39.5.5,0,0,0-.152-.369.538.538,0,0,0-.377-.144.749.749,0,0,0-.115.008.609.609,0,0,0-.115.03V9.98Z" transform="translate(-8.229 -1.021)"></path></g></g></g></svg> 